<svg width="554" height="683" viewBox="0 0 554 683" fill="none" xmlns="http://www.w3.org/2000/svg">
<path opacity="0.07" d="M553.924 343.526C544.283 337.908 537.3 337.757 532.973 343.07C528.646 348.308 526.52 357.19 526.52 369.715V437.2C526.52 450.029 525.306 460.656 522.952 469.083C520.599 477.812 516.576 484.037 511.034 487.681C505.645 491.4 498.357 492.387 489.096 490.641C480.063 488.971 468.752 484.265 455.24 476.446L448.787 472.726V419.589L456.834 424.219C466.474 429.837 472.927 430.52 476.191 426.421C479.607 422.473 481.353 414.199 481.353 401.674V342.235C481.353 326.749 482.871 314.528 485.908 305.494C488.944 296.461 494.941 290.768 503.975 288.187C494.941 275.206 488.944 262.529 485.908 250.079C482.871 237.63 481.429 223.662 481.429 208.176V148.738C481.429 136.213 479.683 126.041 476.267 118.07C473.079 110.251 466.626 103.571 456.91 97.9535L448.863 93.3229V40.1852L455.315 43.9048C468.828 51.7237 480.138 59.998 489.172 68.8036C498.433 77.6852 505.72 87.1741 511.11 97.1185C516.728 107.215 520.675 117.994 523.028 129.457C525.381 140.615 526.596 152.685 526.596 165.438V232.923C526.596 245.449 528.722 256.835 533.049 267.007C537.375 277.255 544.359 285.15 554 290.692L553.924 343.526Z" fill="url(#paint0_linear)"/>
<path opacity="0.07" d="M309.111 148.055C318.751 153.672 325.735 153.824 330.062 148.51C334.389 143.272 336.515 134.391 336.515 121.865V54.3805C336.515 41.5515 337.729 30.924 340.082 22.4979C342.436 13.7681 346.307 7.46748 351.697 3.74784C357.314 0.104106 364.602 -0.882737 373.635 0.787306C382.896 2.53326 394.283 7.31566 407.795 15.1345L414.248 18.8541V71.9919L406.201 67.3613C396.56 61.7439 389.956 60.9848 386.54 64.9321C383.352 69.0313 381.682 77.3057 381.682 89.831V149.269C381.682 164.755 380.163 176.977 377.127 186.01C374.091 194.968 368.094 200.737 359.06 203.318C368.094 216.299 374.091 228.976 377.127 241.425C380.163 253.875 381.606 267.842 381.606 283.328V342.767C381.606 355.292 383.2 365.464 386.464 373.283C389.88 381.254 396.484 388.01 406.125 393.551L414.172 398.182V451.319L407.719 447.6C394.207 439.781 382.82 431.431 373.559 422.549C364.526 413.743 357.238 404.33 351.621 394.234C346.231 384.29 342.36 373.586 340.006 362.048C337.653 350.889 336.439 338.819 336.439 326.066V258.581C336.439 246.056 334.313 234.669 329.986 224.497C325.659 214.249 318.675 206.354 309.035 200.813L309.111 148.055Z" fill="url(#paint1_linear)"/>
<path opacity="0.4" d="M523.56 366.299C513.919 360.682 506.935 360.53 502.608 365.844C498.281 371.081 496.156 379.963 496.156 392.488V459.973C496.156 472.802 494.941 483.43 492.588 491.856C490.235 500.586 486.212 506.81 480.67 510.454C475.28 514.174 467.993 515.161 458.732 513.415C449.698 511.745 438.388 507.038 424.875 499.219L418.423 495.5V442.362L426.469 446.993C436.11 452.61 442.563 453.293 445.827 449.194C449.243 445.247 450.989 436.972 450.989 424.447V365.009C450.989 349.523 452.507 337.301 455.543 328.268C458.58 319.234 464.577 313.541 473.61 310.96C464.577 297.979 458.58 285.302 455.543 272.853C452.507 260.403 451.065 246.436 451.065 230.95V171.511C451.065 158.986 449.319 148.814 445.903 140.843C442.714 133.024 436.262 126.344 426.545 120.727L418.499 116.096V62.9585L424.951 66.6781C438.463 74.497 449.774 82.7713 458.808 91.577C468.069 100.459 475.356 109.947 480.746 119.892C486.363 129.988 490.311 140.767 492.664 152.23C495.017 163.389 496.232 175.459 496.232 188.212V255.697C496.232 268.222 498.357 279.609 502.684 289.781C507.011 300.029 513.995 307.923 523.636 313.465L523.56 366.299Z" fill="url(#paint2_linear)"/>
<path opacity="0.4" d="M278.746 170.828C288.387 176.445 295.37 176.597 299.697 171.284C304.024 166.046 306.15 157.164 306.15 144.639V77.1538C306.15 64.3249 307.364 53.6973 309.718 45.2712C312.071 36.5414 315.942 30.2408 321.332 26.5212C326.949 22.8774 334.237 21.8906 343.27 23.5606C352.532 25.3066 363.918 30.089 377.43 37.9078L383.883 41.6275V94.7652L375.836 90.1346C366.196 84.5172 359.591 83.7581 356.175 87.7055C352.987 91.8047 351.317 100.079 351.317 112.604V172.043C351.317 187.528 349.799 199.75 346.762 208.784C343.726 217.741 337.729 223.51 328.695 226.091C337.729 239.072 343.726 251.749 346.762 264.199C349.799 276.648 351.241 290.616 351.241 306.102V365.54C351.241 378.065 352.835 388.237 356.099 396.056C359.515 404.027 366.12 410.783 375.76 416.324L383.807 420.955V474.093L377.354 470.373C363.842 462.554 352.456 454.204 343.194 445.322C334.161 436.517 326.874 427.104 321.256 417.008C315.866 407.063 311.995 396.36 309.642 384.821C307.288 373.662 306.074 361.593 306.074 348.839V281.355C306.074 268.829 303.948 257.443 299.621 247.27C295.294 237.023 288.311 229.128 278.67 223.586L278.746 170.828Z" fill="url(#paint3_linear)"/>
<path opacity="0.15" d="M110.223 9.28937L239.955 84.2136L239.879 394.918L110.147 319.993L110.223 9.28937Z" fill="url(#paint4_linear)"/>
<path d="M85.8557 57.0374L189.019 116.628V145.246L85.8557 85.6558V57.0374Z" fill="#F2C94C"/>
<path opacity="0.15" d="M126.24 181.228L225.381 238.465V282.949L126.24 225.712V181.228Z" fill="white"/>
<path opacity="0.15" d="M126.165 127.407L225.456 184.72V195.044L126.165 137.807V127.407Z" fill="white"/>
<path opacity="0.15" d="M126.165 147.599L212.02 197.169V207.493L126.165 157.923V147.599Z" fill="white"/>
<path opacity="0.2" d="M110.223 9.28937L239.955 84.2136V125.889L110.223 50.9645V9.28937Z" fill="url(#paint5_linear)"/>
<path opacity="0.2" d="M142.637 49.0667C142.637 55.3674 138.918 58.3279 134.363 55.7469C129.808 53.09 126.165 45.8785 126.165 39.5779C126.165 33.2772 129.884 30.3167 134.439 32.8977C138.918 35.5546 142.637 42.7661 142.637 49.0667Z" fill="white"/>
<path opacity="0.15" d="M269.637 297.372L399.369 372.296L399.293 683L269.561 608.076L269.637 297.372Z" fill="url(#paint6_linear)"/>
<path d="M319.055 387.782L422.218 447.296V475.839L318.979 416.324L319.055 387.782Z" fill="#F2994A"/>
<path opacity="0.15" d="M285.654 417.311L384.87 474.624V519.032L285.654 461.719V417.311Z" fill="white"/>
<path opacity="0.15" d="M285.502 480.773L384.794 538.086V548.41L285.502 491.173V480.773Z" fill="white"/>
<path opacity="0.15" d="M285.502 499.447L371.358 549.017V559.341L285.502 509.771V499.447Z" fill="white"/>
<path opacity="0.2" d="M269.637 297.372L399.369 372.296V413.971L269.637 339.047V297.372Z" fill="url(#paint7_linear)"/>
<path opacity="0.2" d="M302.051 337.225C302.051 343.526 298.331 346.486 293.777 343.905C289.222 341.248 285.578 334.037 285.578 327.736C285.578 321.436 289.298 318.475 293.852 321.056C298.331 323.637 302.051 330.924 302.051 337.225Z" fill="white"/>
<path opacity="0.3" d="M247.167 340.413L21.3311 210.074L21.407 327.812L227.354 446.689L247.319 476.218L247.167 340.413Z" fill="url(#paint8_linear)"/>
<path opacity="0.15" d="M189.095 335.555L139.601 307.012V317.336L189.095 345.879V335.555Z" fill="white"/>
<path opacity="0.15" d="M189.095 356.279L66.5742 285.53V295.854L189.171 366.603L189.095 356.279Z" fill="white"/>
<path opacity="0.15" d="M189.171 377.002L41.22 291.603V301.926L189.171 387.326V377.002Z" fill="white"/>
<path d="M201.317 353.394C201.317 363.111 207.086 374.27 214.146 378.369C221.205 382.468 226.975 377.913 226.975 368.197C226.975 358.48 221.205 347.321 214.146 343.222C207.01 339.123 201.317 343.678 201.317 353.394Z" fill="#F2994A"/>
<path opacity="0.15" d="M43.649 127.407L13.74 110.099V100.003L43.649 117.311C46.0782 118.753 49.646 121.562 52.6824 125.965C55.9466 130.671 58.2999 136.592 58.2999 143.045C58.2999 150.18 56.478 154.204 53.062 155.418C49.7978 156.481 46.0022 154.659 43.649 153.293L31.3514 146.157L31.2755 146.081C30.2127 145.474 28.5427 144.866 27.2522 145.246C26.1894 145.55 24.8989 146.688 24.8989 150.636C24.8989 154.583 26.1135 157.012 27.1763 158.455C28.4668 160.276 30.1368 161.567 31.1996 162.098L31.3514 162.174L69.0033 183.885V193.981L31.5791 172.346C28.9981 170.98 25.2785 168.171 22.0902 163.692C18.5983 158.758 16.1691 152.533 16.1691 145.55C16.1691 138.642 18.5983 135.074 22.0143 134.087C25.2026 133.176 28.9222 134.543 31.5032 136.061L43.7249 143.121C45.4709 144.107 46.8373 144.563 47.6723 144.259C48.3555 144.031 49.5701 143.045 49.5701 137.959C49.5701 134.618 48.5073 132.493 47.4446 130.975C46.23 129.305 44.6358 127.938 43.649 127.407Z" fill="white"/>
<path d="M22.6215 111.162C22.6215 119.816 17.5355 123.839 11.3108 120.271C5.08605 116.704 0 106.759 0 98.1053C0 89.4515 5.08605 85.4282 11.3108 88.996C17.5355 92.6397 22.6215 102.584 22.6215 111.162Z" fill="#F2C94C"/>
<path d="M82.5913 194.664C82.5913 203.318 77.5052 207.341 71.2805 203.773C65.0558 200.206 59.9697 190.261 59.9697 181.607C59.9697 172.954 65.0558 168.93 71.2805 172.498C77.5052 176.142 82.5913 186.086 82.5913 194.664Z" fill="#F2C94C"/>
<path opacity="0.2" d="M163.285 458.607C167.84 461.264 171.483 467.564 171.483 472.878V496.031L186.818 504.837C191.372 507.494 195.016 513.794 195.016 519.108C195.016 524.346 191.296 526.471 186.818 523.89L171.483 515.085V538.238C171.483 543.475 167.764 545.601 163.285 543.02C158.73 540.363 155.087 534.062 155.087 528.749V505.596L139.753 496.79C135.198 494.133 131.554 487.833 131.554 482.519C131.554 477.281 135.274 475.156 139.753 477.737L155.087 486.542V463.389C155.087 458.076 158.73 455.95 163.285 458.607Z" fill="url(#paint9_linear)"/>
<defs>
<linearGradient id="paint0_linear" x1="601.683" y1="55.5333" x2="414.463" y2="380.014" gradientUnits="userSpaceOnUse">
<stop stop-color="white"/>
<stop offset="1" stop-color="white" stop-opacity="0"/>
</linearGradient>
<linearGradient id="paint1_linear" x1="511.662" y1="2.18924" x2="324.442" y2="326.67" gradientUnits="userSpaceOnUse">
<stop stop-color="white"/>
<stop offset="1" stop-color="white" stop-opacity="0"/>
</linearGradient>
<linearGradient id="paint2_linear" x1="571.319" y1="78.3066" x2="384.099" y2="402.787" gradientUnits="userSpaceOnUse">
<stop stop-color="white"/>
<stop offset="1" stop-color="white" stop-opacity="0"/>
</linearGradient>
<linearGradient id="paint3_linear" x1="481.297" y1="24.9624" x2="294.077" y2="349.443" gradientUnits="userSpaceOnUse">
<stop stop-color="white"/>
<stop offset="1" stop-color="white" stop-opacity="0"/>
</linearGradient>
<linearGradient id="paint4_linear" x1="242.309" y1="85.5445" x2="118.371" y2="300.269" gradientUnits="userSpaceOnUse">
<stop stop-color="white"/>
<stop offset="1" stop-color="white" stop-opacity="0"/>
</linearGradient>
<linearGradient id="paint5_linear" x1="154.735" y1="9.92376" x2="194.218" y2="121.875" gradientUnits="userSpaceOnUse">
<stop stop-color="white"/>
<stop offset="1" stop-color="white" stop-opacity="0"/>
</linearGradient>
<linearGradient id="paint6_linear" x1="401.717" y1="373.646" x2="277.779" y2="588.371" gradientUnits="userSpaceOnUse">
<stop stop-color="white"/>
<stop offset="1" stop-color="white" stop-opacity="0"/>
</linearGradient>
<linearGradient id="paint7_linear" x1="314.143" y1="298.025" x2="353.626" y2="409.977" gradientUnits="userSpaceOnUse">
<stop stop-color="white"/>
<stop offset="1" stop-color="white" stop-opacity="0"/>
</linearGradient>
<linearGradient id="paint8_linear" x1="197.925" y1="293.297" x2="81.2868" y2="384.621" gradientUnits="userSpaceOnUse">
<stop stop-color="white"/>
<stop offset="1" stop-color="white" stop-opacity="0"/>
</linearGradient>
<linearGradient id="paint9_linear" x1="179.12" y1="488.184" x2="139.363" y2="519.539" gradientUnits="userSpaceOnUse">
<stop stop-color="white"/>
<stop offset="1" stop-color="white" stop-opacity="0"/>
</linearGradient>
</defs>
</svg>
