<svg width="416" height="313" viewBox="0 0 416 313" fill="none" xmlns="http://www.w3.org/2000/svg">
<g clip-path="url(#clip0)">
<mask id="mask0" mask-type="alpha" maskUnits="userSpaceOnUse" x="-2" y="0" width="418" height="313">
<path d="M416 15.65C416 7.3361 409.805 0 409.805 0H-2V313H409.805C409.805 313 403.609 305.664 403.609 297.35C403.609 289.036 409.805 281.7 409.805 281.7C409.805 281.7 416 274.364 416 266.05C416 257.736 409.805 250.4 409.805 250.4C409.805 250.4 403.609 243.064 403.609 234.75C403.609 226.436 409.805 219.1 409.805 219.1C409.805 219.1 416 211.764 416 203.45C416 195.136 409.805 187.8 409.805 187.8C409.805 187.8 403.609 180.464 403.609 172.15C403.609 163.836 409.805 156.5 409.805 156.5C409.805 156.5 416 149.164 416 140.85C416 132.536 409.805 125.2 409.805 125.2C409.805 125.2 403.609 117.864 403.609 109.55C403.609 101.236 409.805 93.9 409.805 93.9C409.805 93.9 416 86.5639 416 78.25C416 69.9361 409.805 62.6 409.805 62.6C409.805 62.6 403.609 55.2642 403.609 46.95C403.609 38.6358 409.805 31.3 409.805 31.3C409.805 31.3 416 23.9639 416 15.65Z" fill="#C4C4C4"/>
</mask>
<g mask="url(#mask0)">
<path d="M431 -10H-8C-10.209 -10 -12 -8.20914 -12 -6V339C-12 341.209 -10.209 343 -8 343H431V-10Z" fill="black"/>
</g>
</g>
<defs>
<clipPath id="clip0">
<rect width="416" height="313" fill="white" transform="matrix(-1 0 0 1 416 0)"/>
</clipPath>
</defs>
</svg>
