<svg width="623" height="201" viewBox="0 0 623 201" fill="none" xmlns="http://www.w3.org/2000/svg"><path d="M235 158.284h94.441v-24.872h-53.548v-.805l51.646-66.423V45.92h-90.637v24.873h53.109v.804L235 139.703v18.581zM371.312 160.406c16.606 0 27.359-7.243 32.846-17.704h.878v15.582h29.554V82.497c0-26.774-22.678-38.04-47.696-38.04-26.921 0-44.624 12.875-48.94 33.358l28.822 2.341c2.122-7.461 8.779-12.948 19.971-12.948 10.608 0 16.679 5.34 16.679 14.558v.438c0 7.243-7.681 8.194-27.213 10.096-22.238 2.048-42.209 9.51-42.209 34.601 0 22.239 15.874 33.505 37.308 33.505zm8.925-21.508c-9.583 0-16.46-4.462-16.46-13.021 0-8.778 7.242-13.094 18.215-14.631 6.804-.951 17.923-2.56 21.654-5.047v11.924c0 11.778-9.73 20.775-23.409 20.775zM444.767 200.42h31.163v-60.132h.951c4.316 9.364 13.753 19.825 31.895 19.825 25.604 0 45.575-20.264 45.575-57.864 0-38.625-20.849-57.792-45.502-57.792-18.8 0-27.798 11.193-31.968 20.337h-1.39V45.921h-30.724V200.42zm30.505-98.318c0-20.044 8.486-32.846 23.628-32.846 15.436 0 23.629 13.388 23.629 32.846 0 19.605-8.34 33.212-23.629 33.212-14.996 0-23.628-13.168-23.628-33.212zM620.893 45.92h-21.142V19h-31.163v26.92h-15.362v23.41h15.362v58.522c-.146 22.019 14.85 32.919 37.454 31.968 8.047-.292 13.753-1.902 16.899-2.926l-4.901-23.189c-1.537.292-4.829 1.024-7.755 1.024-6.218 0-10.534-2.341-10.534-10.973V69.329h21.142V45.921z" fill="#000"></path><path d="M0 130c0-38.66 31.34-70 70-70s70 31.34 70 70-31.34 70-70 70H0v-70z" fill="#011FBB"></path><path fill="#fff" d="M65 60h75v75H65z"></path><path d="M75 62.5C75 27.982 102.982 0 137.5 0S200 27.982 200 62.5 172.018 125 137.5 125H75V62.5z" fill="#FF5B58"></path></svg>
