<svg  width="417" height="313" viewBox="0 0 417 313" fill="none" xmlns="http://www.w3.org/2000/svg" xmlns:xlink="http://www.w3.org/1999/xlink">
<mask id="mask0" mask-type="alpha" maskUnits="userSpaceOnUse" x="0" y="-1" width="420" height="315">
<path d="M1 15.65C1 7.3361 7.19543 0 7.19543 0H419V313H7.19543C7.19543 313 13.3909 305.664 13.3909 297.35C13.3909 289.036 7.19543 281.7 7.19543 281.7C7.19543 281.7 1 274.364 1 266.05C1 257.736 7.19543 250.4 7.19543 250.4C7.19543 250.4 13.3909 243.064 13.3909 234.75C13.3909 226.436 7.19543 219.1 7.19543 219.1C7.19543 219.1 1 211.764 1 203.45C1 195.136 7.19543 187.8 7.19543 187.8C7.19543 187.8 13.3909 180.464 13.3909 172.15C13.3909 163.836 7.19543 156.5 7.19543 156.5C7.19543 156.5 1 149.164 1 140.85C1 132.536 7.19543 125.2 7.19543 125.2C7.19543 125.2 13.3909 117.864 13.3909 109.55C13.3909 101.236 7.19543 93.9 7.19543 93.9C7.19543 93.9 1 86.5639 1 78.25C1 69.9361 7.19543 62.6 7.19543 62.6C7.19543 62.6 13.3909 55.2642 13.3909 46.95C13.3909 38.6358 7.19543 31.3 7.19543 31.3C7.19543 31.3 1 23.9639 1 15.65Z" fill="#C4C4C4" stroke="#008EFF" stroke-width="1.5"/>
</mask>
<g mask="url(#mask0)">
<path d="M-14 -10H425C427.209 -10 429 -8.20914 429 -6V339C429 341.209 427.209 343 425 343H-14V-10Z" fill="#FAFAFA"/>
</g>
</svg>
