<svg
  xmlns="http://www.w3.org/2000/svg"
  width="16px"
  height="313px"
  viewBox="0 0 3.62 72.91"
>
  <path
    fill="#FAFAFA"
    d="M1.29 5.73c-0.31,-0.7 -0.47,-1.35 -0.48,-2.05 0,-0.69 0.14,-1.44 0.41,-2.06 0.27,-0.62 0.65,-1.12 1.04,-1.62l-2.26 0 0 72.91 2.2 0c0.57,-0.93 1.13,-1.86 1.32,-2.86 0.18,-1 -0.01,-2.07 -0.52,-3 -0.51,-0.93 -1.34,-1.71 -1.84,-2.81 -0.51,-1.1 -0.71,-2.51 -0.16,-3.91 0.54,-1.39 1.81,-2.77 2.32,-4.01 0.52,-1.24 0.28,-2.34 -0.09,-3.23 -0.38,-0.89 -0.89,-1.58 -1.42,-2.52 -0.53,-0.94 -1.07,-2.14 -1.09,-3.19 -0.01,-1.06 0.5,-1.96 1.06,-2.9 0.56,-0.94 1.17,-1.9 1.49,-2.86 0.31,-0.96 0.32,-1.91 0.06,-2.72 -0.26,-0.81 -0.78,-1.49 -1.28,-2.27 -0.49,-0.79 -0.96,-1.68 -1.17,-2.59 -0.22,-0.91 -0.19,-1.83 0.11,-2.66 0.29,-0.84 0.86,-1.58 1.38,-2.42 0.52,-0.83 1.01,-1.77 1.15,-2.74 0.14,-0.98 -0.06,-2 -0.48,-2.92 -0.42,-0.92 -1.06,-1.74 -1.46,-2.36 -0.4,-0.63 -0.56,-1.07 -0.69,-1.58 -0.12,-0.51 -0.2,-1.09 -0.12,-1.7 0.08,-0.61 0.33,-1.24 0.69,-1.91 0.37,-0.66 0.85,-1.36 1.21,-2 0.36,-0.64 0.58,-1.22 0.71,-1.89 0.13,-0.67 0.16,-1.44 0,-2.1 -0.16,-0.66 -0.52,-1.23 -0.92,-1.9 -0.41,-0.66 -0.86,-1.42 -1.17,-2.13z"
  />
</svg>
