<svg width="172" height="105" viewBox="0 0 172 105" fill="none" xmlns="http://www.w3.org/2000/svg">
<path d="M169.115 5.3007L128.569 0.0279846C126.886 -0.190628 125.304 0.892883 124.92 2.5407C123.123 10.3029 116.523 31.8036 96.7748 45.2908C77.2769 58.6031 49.3907 61.18 13.8403 52.9628C12.071 52.5529 10.2962 53.6214 9.86104 55.3813L0.0976759 94.9355C-0.34431 96.7159 0.755867 98.5263 2.5457 98.943C19.8502 102.985 36.0901 105 51.2353 105C79.2117 105 103.41 98.1123 123.539 84.3682C159.604 59.7426 169.648 20.9795 171.938 9.19205C172.304 7.32699 171.002 5.54665 169.115 5.3007Z" fill="white"/>
</svg>
